<?xml version="1.0" encoding="UTF-8"?>
<svg height="128px" viewBox="0 0 128 128" width="128px" xmlns="http://www.w3.org/2000/svg">
    <g fill="#1a5fb4">
        <path d="m 117 67.433594 c 0 29.425781 -23.960938 53.277344 -53.519531 53.277344 c -29.558594 0 -53.523438 -23.851563 -53.523438 -53.277344 c 0 -29.421875 23.964844 -53.273438 53.523438 -53.273438 c 29.558593 0 53.519531 23.851563 53.519531 53.273438 z m 0 0" fill-rule="evenodd"/>
        <path d="m 64.09375 12.710938 c -30.820312 0 -55.808594 24.988281 -55.808594 55.808593 c 0 30.824219 24.988282 55.8125 55.808594 55.8125 c 30.824219 0 55.8125 -24.988281 55.8125 -55.8125 c 0 -30.820312 -24.988281 -55.808593 -55.8125 -55.808593 z m -24.285156 8.144531 h 0.003906 s 0.003906 0.003906 0.007812 0.003906 c 0.132813 0.039063 0.496094 0.882813 0.84375 1.972656 c 2.386719 7.546875 5.390626 12.75 10.078126 17.472657 c 2.496093 2.511718 4.46875 3.929687 10.316406 7.421874 c 2.046875 1.222657 4.375 2.675782 5.171875 3.234376 c 1.53125 1.0625 4.835937 3.53125 6.035156 4.503906 c 5.539063 4.480468 9.09375 8.96875 11.761719 14.847656 c 1.339844 2.953125 2.714844 7.421875 3.265625 10.621094 c 1.4375 8.34375 0.277343 16.984375 -3.25 24.183594 c -1.859375 3.789062 -4.484375 7.191406 -7.25 9.398437 c -4.359375 3.476563 -10.003907 5.492187 -16.535157 5.90625 c -2.480468 0.160156 -4.296874 0.074219 -5.371093 -0.253906 c -0.433594 -0.132813 -0.570313 -0.21875 -0.59375 -0.371094 c -0.023438 -0.167969 0.191406 -0.3125 1.484375 -0.96875 c 1.992187 -1.019531 3.734375 -2.070313 5.207031 -3.140625 c 6.617187 -4.820312 10.882813 -11.171875 12.320313 -18.335938 c 0.789062 -3.9375 0.585937 -7.582031 -0.609376 -11.179687 c -1 -2.992187 -2.585937 -5.53125 -5.042968 -8.074219 c -3.144532 -3.25 -6.394532 -5.347656 -12.53125 -8.074218 c -5.675782 -2.523438 -7.699219 -3.777344 -10.488282 -6.492188 c -1.53125 -1.488281 -2.496093 -2.632812 -3.546874 -4.214844 c -1.382813 -2.078125 -2.25 -3.945312 -3.007813 -6.453125 c -1.757813 -5.820312 -2.003906 -14.226562 -0.660156 -22.488281 c 0.648437 -3.992188 2.027343 -9.476562 2.390625 -9.519531 z m 53.136718 28.472656 c 1.375 0.039063 1.71875 0.082031 2.4375 0.296875 c 1.703126 0.511719 3.125 1.328125 4.300782 2.46875 l 0.710937 0.695312 l 0.796875 0.144532 c 1.601563 0.296875 2.707032 0.800781 3.628906 1.664062 c 0.578126 0.542969 1.265626 1.632813 1.109376 1.761719 c -0.042969 0.035156 -0.566407 0.164063 -1.160157 0.28125 c -1.128906 0.230469 -2.890625 0.855469 -3.773437 1.347656 c -0.730469 0.40625 -2.101563 1.453125 -2.828125 2.160157 c -0.617188 0.601562 -1.777344 2.007812 -2.328125 2.824218 c -0.519532 0.765625 -1.605469 2.929688 -2.007813 3.996094 c -0.9375 2.484375 -1.378906 4.539062 -1.738281 8.148438 c -0.320312 3.179687 -0.804688 6.363281 -1.222656 8.003906 c -0.328125 1.296875 -1.050782 3.359375 -1.378906 3.933594 c -0.191407 0.335937 -0.289063 0.480468 -0.332032 0.484374 h -0.003906 v -0.003906 h -0.007812 c -0.011719 -0.015625 -0.019532 -0.050781 -0.019532 -0.109375 c 0 -0.433593 -0.300781 -4.585937 -0.382812 -5.246093 c -0.226563 -1.894532 -0.78125 -4.894532 -1.214844 -6.59375 c -0.496094 -1.933594 -0.628906 -2.351563 -1.410156 -4.472657 c -2.289063 -6.203125 -6.464844 -11.449219 -10.023438 -14.246093 c -0.363281 -0.28125 0.003906 -0.59375 0.027344 -0.632813 h 0.003906 v -0.007813 c 0.027344 -0.023437 0.238282 -0.109374 0.492188 -0.191406 c 0.832031 -0.265625 2.386718 -1.132812 3.6875 -2.054687 c 3.578125 -2.539063 6.449218 -3.855469 9.714844 -4.457031 c 1.1875 -0.21875 1.480468 -0.238282 2.921874 -0.195313 z m 0.660157 2.8125 c -0.339844 0.011719 -0.679688 0.101563 -0.917969 0.265625 c -1.207031 0.828125 -1.070312 2.558594 0.257812 3.25 c 0.390626 0.203125 1.105469 0.1875 1.542969 -0.035156 c 1.339844 -0.683594 1.371094 -2.519532 0.050781 -3.28125 c -0.25 -0.148438 -0.59375 -0.210938 -0.933593 -0.199219 z m 0 0" fill-rule="evenodd"/>
        <path d="m 34.535156 77.828125 c -1.890625 0 -3.367187 1.46875 -3.367187 3.363281 v 24.019532 c 0 1.894531 1.476562 3.367187 3.367187 3.367187 h 24.023438 c 1.890625 0 3.363281 -1.472656 3.363281 -3.367187 v -24.023438 c 0 -1.890625 -1.472656 -3.363281 -3.363281 -3.363281 z m 9.460938 5.175781 h 5.097656 v 5.097656 h -5.097656 z m 0 7.648438 h 5.097656 v 12.746094 h -5.097656 z m 0 0"/>
        <path d="m 57.707031 114.785156 c -0.191406 0 -0.386719 0 -0.582031 0 c -0.230469 0 -0.46875 0.050782 -0.695312 0 c -0.597657 -0.132812 -1.132813 -0.695312 -1.746094 -0.695312 c -0.207032 0 -0.492188 0.042968 -0.695313 0 c -0.515625 -0.113282 -1.78125 -0.523438 -2.328125 -0.117188 c -0.066406 0.050782 -0.054687 0.171875 -0.113281 0.230469 c -0.070313 0.074219 -0.304687 0.101563 -0.351563 0.234375 c -0.046874 0.148438 0.050782 0.316406 0 0.464844 c -0.015624 0.050781 -0.074218 0.078125 -0.113281 0.117187 c -0.039062 0.117188 -0.09375 0.226563 -0.117187 0.347657 c -0.0625 0.316406 -0.101563 1.09375 0 1.394531 c 0.015625 0.046875 0.449218 0.652343 0.464844 0.699219 c 0.023437 0.074218 0 0.15625 0 0.230468 c 0.078124 0.078125 0.183593 0.136719 0.230468 0.234375 c 0.070313 0.136719 -0.066406 0.328125 0 0.464844 c 0.050782 0.097656 0.183594 0.132813 0.234375 0.234375 c 0.070313 0.136719 -0.050781 0.316406 0 0.464844 c 0.070313 0.207031 0.34375 0.28125 0.464844 0.464844 c 0.066406 0.101562 0.0625 0.238281 0.117187 0.347656 c 0.109376 0.21875 0.503907 0.351562 0.582032 0.582031 c 0.039062 0.113281 -0.082032 0.296875 0.113281 0.347656 c 0.113281 0.027344 0.238281 -0.027343 0.351563 0 c 0.050781 0.011719 0.078124 0.078125 0.113281 0.117188 c 0.078125 0.039062 0.148437 0.09375 0.234375 0.117187 c 0.152344 0.035156 0.328125 -0.070312 0.464844 0 c 0.097656 0.046875 0.136718 0.183594 0.234374 0.230469 c 0.222657 0.113281 2.609376 0 3.019532 0 c 0.460937 0 1.199218 0.144531 1.628906 0 c 0.265625 -0.089844 0.289062 -0.394531 0.347656 -0.582031 c 0.035156 -0.101563 0.199219 -0.128906 0.234375 -0.230469 c 0.070313 -0.214844 0.054688 -1.230469 0 -1.511719 c -0.097656 -0.488281 -0.535156 -0.527344 -0.699219 -0.929687 c -0.242187 -0.613281 0.234376 -0.117188 -0.113281 -0.582031 c -0.226562 -0.300782 -0.695312 -0.457032 -0.816406 -0.8125 c -0.023437 -0.074219 0.019531 -0.160157 0 -0.234376 c -0.019531 -0.085937 -0.078125 -0.15625 -0.113281 -0.234374 c -0.039063 -0.113282 -0.09375 -0.226563 -0.117188 -0.347657 c -0.015625 -0.074219 0 -0.15625 0 -0.230469 c -0.078125 -0.273437 -0.15625 -0.542968 -0.234375 -0.816406 z m 0 0" fill-rule="evenodd"/>
    </g>
    <path d="m 116.90625 58.78125 c 0 29.421875 -23.960938 53.273438 -53.519531 53.273438 c -29.558594 0 -53.519531 -23.851563 -53.519531 -53.273438 s 23.960937 -53.273438 53.519531 -53.273438 c 29.558593 0 53.519531 23.851563 53.519531 53.273438 z m 0 0" fill="#ffffff" fill-rule="evenodd"/>
    <path d="m 64.003906 4.058594 c -30.824218 0 -55.8125 24.984375 -55.8125 55.808594 c 0 30.824218 24.988282 55.8125 55.8125 55.8125 c 30.824219 0 55.808594 -24.988282 55.808594 -55.8125 c 0 -30.824219 -24.984375 -55.808594 -55.808594 -55.808594 z m -24.289062 8.144531 h 0.003906 h 0.007812 c 0.132813 0.039063 0.496094 0.886719 0.84375 1.976563 c 2.386719 7.546874 5.390626 12.75 10.078126 17.472656 c 2.496093 2.511718 4.46875 3.929687 10.316406 7.421875 c 2.046875 1.21875 4.375 2.675781 5.175781 3.234375 c 1.527344 1.0625 4.835937 3.53125 6.03125 4.5 c 5.539063 4.484375 9.09375 8.972656 11.761719 14.847656 c 1.339844 2.957031 2.714844 7.425781 3.265625 10.625 c 1.4375 8.34375 0.277343 16.984375 -3.25 24.183594 c -1.855469 3.789062 -4.480469 7.191406 -7.25 9.398437 c -4.355469 3.476563 -10.003907 5.492188 -16.535157 5.90625 c -2.476562 0.15625 -4.296874 0.070313 -5.371093 -0.253906 c -0.433594 -0.132813 -0.570313 -0.21875 -0.59375 -0.371094 c -0.023438 -0.167969 0.195312 -0.3125 1.484375 -0.972656 c 1.992187 -1.015625 3.738281 -2.066406 5.207031 -3.136719 c 6.617187 -4.820312 10.886719 -11.171875 12.320313 -18.339844 c 0.789062 -3.933593 0.589843 -7.578124 -0.609376 -11.175781 c -0.996093 -2.992187 -2.582031 -5.53125 -5.042968 -8.074219 c -3.144532 -3.25 -6.394532 -5.347656 -12.527344 -8.074218 c -5.679688 -2.523438 -7.703125 -3.78125 -10.492188 -6.492188 c -1.53125 -1.488281 -2.496093 -2.636718 -3.546874 -4.214844 c -1.378907 -2.078124 -2.25 -3.945312 -3.007813 -6.453124 c -1.757813 -5.820313 -2.003906 -14.226563 -0.660156 -22.492188 c 0.648437 -3.992188 2.027343 -9.472656 2.390625 -9.515625 z m 53.136718 28.472656 c 1.375 0.039063 1.71875 0.082031 2.4375 0.296875 c 1.703126 0.507813 3.128907 1.328125 4.300782 2.46875 l 0.714844 0.691406 l 0.792968 0.148438 c 1.601563 0.296875 2.707032 0.800781 3.628906 1.664062 c 0.578126 0.542969 1.265626 1.632813 1.109376 1.761719 c -0.042969 0.035157 -0.566407 0.164063 -1.160157 0.28125 c -1.128906 0.226563 -2.890625 0.855469 -3.769531 1.34375 c -0.734375 0.410157 -2.105469 1.457031 -2.832031 2.164063 c -0.617188 0.601562 -1.777344 2.007812 -2.328125 2.824218 c -0.519532 0.765626 -1.605469 2.929688 -2.007813 3.996094 c -0.9375 2.484375 -1.375 4.539063 -1.738281 8.144532 c -0.320312 3.183593 -0.804688 6.367187 -1.222656 8.007812 c -0.328125 1.296875 -1.050782 3.359375 -1.378906 3.933594 c -0.191407 0.335937 -0.289063 0.480468 -0.332032 0.484375 h -0.003906 v -0.003907 h -0.007812 c -0.011719 -0.015624 -0.019532 -0.050781 -0.019532 -0.109374 c 0 -0.433594 -0.300781 -4.589844 -0.378906 -5.246094 c -0.230469 -1.894532 -0.785156 -4.894532 -1.21875 -6.597656 c -0.496094 -1.929688 -0.628906 -2.347657 -1.410156 -4.46875 c -2.289063 -6.203126 -6.460938 -11.449219 -10.023438 -14.246094 c -0.363281 -0.28125 0.003906 -0.59375 0.03125 -0.632813 v -0.003906 h 0.003906 v -0.003906 c 0.027344 -0.027344 0.238282 -0.109375 0.492188 -0.191407 c 0.828125 -0.265624 2.382812 -1.132812 3.683594 -2.058593 c 3.578125 -2.535157 6.449218 -3.851563 9.714844 -4.453125 c 1.1875 -0.21875 1.480468 -0.238282 2.921874 -0.195313 z m 0.660157 2.8125 c -0.339844 0.011719 -0.675781 0.101563 -0.917969 0.265625 c -1.207031 0.828125 -1.070312 2.558594 0.257812 3.25 c 0.390626 0.203125 1.109376 0.1875 1.546876 -0.039062 c 1.339843 -0.683594 1.367187 -2.515625 0.050781 -3.28125 c -0.253907 -0.144532 -0.597657 -0.207032 -0.9375 -0.195313 z m 0 0" fill="#3584e4" fill-rule="evenodd"/>
    <path d="m 34.441406 69.171875 c -1.890625 0 -3.363281 1.472656 -3.363281 3.367187 v 24.019532 c 0 1.894531 1.472656 3.367187 3.363281 3.367187 h 24.023438 c 1.890625 0 3.367187 -1.472656 3.367187 -3.367187 v -24.023438 c 0 -1.890625 -1.476562 -3.363281 -3.367187 -3.363281 z m 9.460938 5.179687 h 5.101562 v 5.097657 h -5.101562 z m 0 7.648438 h 5.101562 v 12.746094 h -5.101562 z m 0 0" fill="#ffffff"/>
</svg>
